<?xml version="1.0" encoding="iso-8859-1"?>
<!-- Generator: Adobe Illustrator 19.0.0, SVG Export Plug-In . SVG Version: 6.00 Build 0)  -->
<svg version="1.1" id="Layer_1" xmlns="http://www.w3.org/2000/svg" xmlns:xlink="http://www.w3.org/1999/xlink" x="0px" y="0px"
	 viewBox="0 0 512 512" style="enable-background:new 0 0 512 512;" xml:space="preserve">
<g>
	<g>
		<path d="M75.298,2.907c-2.995-2.344-6.715-3.321-10.473-2.745c-3.761,0.576-7.017,2.618-9.173,5.754
			c-15.82,23.011-13.648,53.42,5.284,73.949l3.782,4.101c9.197-11.129,21.143-20.135,35.15-25.957l29.915-12.413L75.298,2.907z"/>
	</g>
</g>
<g>
	<g>
		<path d="M456.347,5.915c-2.154-3.134-5.412-5.177-9.171-5.753c-3.759-0.575-7.478,0.401-10.473,2.745l-54.522,42.716l29.895,12.38
			c14.027,5.83,25.987,14.842,35.193,25.976l3.794-4.114C469.995,59.336,472.167,28.927,456.347,5.915z"/>
	</g>
</g>
<g>
	<g>
		<path d="M420.064,193.631c1.389,2.93,2.189,6.194,2.189,9.653c0,12.479-10.115,22.594-22.594,22.594
			c-4.044,0-7.83-1.075-11.114-2.937c5.01,14.378,7.741,29.812,7.741,45.874v23.499c25.381-5.231,44.514-27.578,44.514-54.276
			v-36.657L420.064,193.631z"/>
	</g>
</g>
<g>
	<g>
		<path d="M401.738,82.921l-96.253-39.86c-15.765-6.552-32.684-9.827-49.602-9.827c-16.914,0-33.825,3.274-49.578,9.82
			l-96.088,39.87c-23.699,9.85-39.017,32.626-39.017,58.022v31.633l32.261-12.059c7.961-2.976,16.833-2.397,24.34,1.586
			c7.508,3.983,12.962,11.006,14.961,19.266l0.905,3.738c25.589-34.099,66.364-56.202,112.212-56.202h0.352
			c45.808,0,86.548,22.082,112.118,56.148l0.892-3.684c1.999-8.261,7.451-15.283,14.961-19.266
			c7.507-3.985,16.379-4.562,24.34-1.586l32.262,12.058v-31.633C440.801,115.558,425.466,92.783,401.738,82.921z"/>
	</g>
</g>
<g>
	<g>
		<path d="M112.341,225.879c-12.479,0-22.594-10.115-22.594-22.594c0-3.459,0.8-6.723,2.189-9.653l-20.737,7.751v36.657
			c0,26.696,19.132,49.044,44.514,54.276v-23.393c0-16.11,2.746-31.589,7.782-46.005
			C120.202,224.793,116.401,225.879,112.341,225.879z"/>
	</g>
</g>
<g>
	<g>
		<path d="M256.229,155.887h-0.352c-62.411,0-113.186,50.708-113.186,113.036v134.593c0,24.86,20.103,45.085,44.814,45.085h18.585
			c8.083,0,15.271-5.268,17.887-13.107l17.397-52.029c-0.129-0.753-0.212-1.522-0.212-2.311V290.89l-33.454-33.407
			c-5.272-5.264-5.278-13.805-0.013-19.078c5.265-5.269,13.805-5.277,19.076-0.013l29.331,29.289l29.344-29.406
			c5.263-5.272,13.803-5.284,19.076-0.02c5.274,5.261,5.282,13.802,0.02,19.076l-36.402,36.477v82.598
			c0.248,0.511,0.475,1.039,0.66,1.593l19.227,57.68c2.601,7.795,9.789,12.919,17.883,12.919h18.585
			c24.711,0,44.814-20.224,44.814-45.085V268.816C369.308,206.546,318.581,155.887,256.229,155.887z"/>
	</g>
</g>
<g>
	<g>
		<path d="M276.444,464.788h-40.923h-36.175C199.363,490.823,220.641,512,246.795,512h18.409c26.154,0,47.432-21.177,47.449-47.212
			H276.444z"/>
	</g>
</g>
<g>
</g>
<g>
</g>
<g>
</g>
<g>
</g>
<g>
</g>
<g>
</g>
<g>
</g>
<g>
</g>
<g>
</g>
<g>
</g>
<g>
</g>
<g>
</g>
<g>
</g>
<g>
</g>
<g>
</g>
</svg>
