<?xml version="1.0" standalone="no"?>
<!DOCTYPE svg PUBLIC "-//W3C//DTD SVG 20010904//EN"
 "http://www.w3.org/TR/2001/REC-SVG-20010904/DTD/svg10.dtd">
<svg version="1.0" xmlns="http://www.w3.org/2000/svg"
 width="512.000000pt" height="512.000000pt" viewBox="0 0 512.000000 512.000000"
 preserveAspectRatio="xMidYMid meet">

<g transform="translate(0.000000,512.000000) scale(0.100000,-0.100000)"
stroke="none">
<path d="M2074 5050 c-5 -5 -43 -16 -84 -25 -84 -17 -125 -42 -125 -74 0 -15
-13 -29 -40 -44 -48 -27 -110 -128 -98 -161 4 -12 6 -55 5 -96 -3 -86 16 -136
62 -158 33 -16 33 -51 3 -176 -20 -80 -25 -90 -50 -99 -20 -6 -36 -4 -64 10
-60 29 -72 55 -79 168 -3 55 -12 125 -20 154 -9 38 -10 59 -3 67 7 9 5 21 -7
40 -17 25 -17 27 1 40 18 13 17 15 -8 51 -21 29 -24 40 -15 51 10 11 4 21 -25
50 -20 21 -50 51 -66 67 -69 70 -86 78 -159 71 -55 -6 -85 -2 -166 20 l-99 26
-26 -21 c-14 -12 -40 -28 -58 -36 -45 -21 -77 -69 -63 -94 15 -29 12 -41 -9
-41 -29 0 -84 -26 -106 -50 -20 -22 -24 -49 -27 -173 -2 -52 1 -61 25 -80 14
-12 33 -39 41 -60 9 -23 24 -41 36 -44 18 -5 20 -11 14 -37 -10 -49 -78 -242
-119 -341 -46 -109 -70 -145 -170 -255 -140 -154 -228 -304 -291 -498 -19 -58
-59 -151 -89 -206 -68 -128 -119 -259 -145 -375 -26 -119 -25 -180 5 -266 30
-85 31 -114 6 -164 -11 -21 -17 -47 -15 -59 3 -11 -3 -40 -14 -65 -11 -25 -23
-59 -27 -77 l-7 -31 59 29 c69 35 85 52 114 116 29 67 22 120 -26 193 -56 84
-65 155 -37 278 21 95 78 228 97 229 6 1 15 -54 21 -124 7 -69 20 -165 29
-215 11 -56 16 -117 13 -162 -4 -54 -1 -75 10 -86 11 -11 11 -19 3 -35 -15
-29 -14 -52 4 -52 22 0 19 -15 -26 -112 -31 -68 -39 -96 -34 -116 4 -15 7 -46
6 -70 -1 -24 8 -64 19 -89 11 -25 20 -53 20 -63 0 -10 7 -23 15 -30 8 -7 15
-19 15 -27 0 -9 12 -42 26 -74 14 -32 24 -64 21 -71 -2 -7 4 -27 14 -44 25
-41 41 -157 29 -210 -5 -24 -26 -78 -45 -122 -47 -108 -47 -149 4 -250 33 -66
39 -90 45 -167 3 -49 18 -151 32 -225 26 -133 27 -175 8 -305 -7 -53 9 -73 77
-92 79 -21 239 -29 293 -13 82 23 70 74 -37 153 -118 87 -155 145 -198 307
-19 70 -23 106 -21 203 4 188 5 297 1 379 -4 86 -7 80 116 229 106 128 113
135 124 124 20 -19 29 -169 19 -311 -11 -159 -3 -219 44 -364 31 -92 32 -102
37 -322 5 -184 9 -230 21 -242 24 -23 179 -67 240 -68 54 -2 183 33 195 53 12
18 -18 50 -84 88 -128 75 -206 189 -242 355 -27 120 -28 221 -5 328 18 84 18
91 2 166 -28 128 -10 178 117 325 98 115 129 165 162 267 12 37 34 71 68 107
33 35 56 71 67 105 13 42 22 53 38 53 12 0 39 17 60 38 44 43 52 45 78 16 27
-30 88 -59 123 -59 17 0 38 -9 49 -20 13 -14 37 -23 73 -27 30 -3 67 -12 82
-20 16 -8 54 -18 84 -23 31 -5 58 -12 61 -15 3 -2 5 -18 4 -35 0 -19 4 -30 13
-30 23 0 26 -17 14 -78 -12 -57 -11 -62 26 -167 25 -68 49 -119 67 -137 15
-16 28 -37 28 -48 0 -10 13 -34 30 -52 17 -18 30 -36 30 -39 0 -4 16 -26 35
-49 28 -34 35 -50 35 -85 0 -23 9 -95 20 -160 27 -152 27 -321 1 -496 -11 -74
-25 -175 -30 -225 -5 -50 -17 -109 -26 -130 -23 -56 -13 -79 55 -123 84 -55
132 -64 249 -51 151 17 185 54 104 112 -26 19 -74 58 -105 87 -82 75 -88 100
-88 372 0 235 3 253 58 346 47 79 64 140 69 238 2 50 11 118 20 152 14 55 23
69 89 134 41 40 76 70 79 68 2 -3 16 -31 30 -62 28 -64 49 -170 64 -332 6 -60
18 -135 27 -165 12 -41 18 -133 25 -355 7 -252 6 -316 -7 -398 -18 -112 -17
-115 54 -145 42 -18 66 -20 242 -18 188 2 195 3 198 23 4 24 -46 70 -122 113
-66 38 -91 65 -111 119 -8 24 -31 66 -51 93 -56 76 -63 105 -64 271 0 112 5
169 20 238 11 50 27 152 35 227 9 75 18 147 22 161 11 46 41 98 67 115 14 9
26 26 26 37 0 12 25 44 58 77 56 55 59 60 76 142 25 119 63 182 129 217 29 14
32 14 46 -3 16 -18 38 -20 155 -14 22 1 201 149 231 191 11 15 30 32 42 38 12
6 31 27 42 48 11 21 49 74 85 117 76 92 116 164 146 261 12 39 27 75 34 80 10
9 76 190 112 310 14 45 24 138 26 235 0 19 -4 96 -9 170 -8 109 -8 142 3 174
8 21 14 53 14 71 0 42 20 136 33 152 5 7 13 10 18 8 4 -3 13 4 19 15 9 17 14
19 25 10 23 -19 49 4 69 59 13 36 27 56 47 66 16 9 35 28 43 44 21 39 35 43
135 35 109 -8 135 3 192 88 l42 61 -18 32 c-44 83 -94 121 -248 191 -107 48
-153 74 -164 93 -9 14 -27 42 -40 61 l-24 35 26 23 c42 36 31 67 -44 126 -47
36 -76 52 -110 57 -25 4 -66 13 -91 19 -28 7 -68 9 -105 5 -33 -4 -96 -8 -140
-9 -68 -1 -85 -5 -112 -25 -18 -14 -33 -31 -33 -38 0 -7 -26 -31 -57 -54 -66
-47 -86 -69 -113 -120 -10 -20 -32 -41 -47 -48 -34 -14 -61 -58 -69 -114 -4
-23 -27 -76 -51 -118 -43 -75 -44 -79 -42 -161 1 -75 -2 -88 -28 -133 -44 -75
-74 -152 -67 -170 4 -9 -1 -33 -9 -53 -9 -20 -21 -84 -27 -142 -7 -57 -18
-120 -26 -138 -31 -76 -87 -122 -149 -122 -66 0 -110 52 -399 478 -44 66 -76
123 -76 138 0 15 -14 38 -36 60 -29 29 -34 41 -29 64 5 23 2 29 -18 34 -27 6
-97 71 -97 89 0 7 -21 55 -46 107 l-46 95 4 115 c4 96 2 122 -14 158 -10 24
-18 58 -18 76 0 22 -8 39 -26 55 -15 13 -23 28 -20 38 4 8 -5 28 -19 44 -13
16 -22 36 -18 44 4 11 -12 23 -53 42 -54 25 -115 37 -244 46 -25 2 -55 9 -67
15 -26 14 -27 14 -39 2z"/>
</g>
</svg>
