<svg id="Layer_1" enable-background="new 0 0 512 512" height="512" viewBox="0 0 512 512" width="512" xmlns="http://www.w3.org/2000/svg"><g><path d="m348.796 484.146-89.497-.031c-4.151 0-7.515-3.364-7.515-7.515v-139.767c-50.251 17.913-104.346 17.634-168.586-.835v97.05c13.56 9.976 21.534 25.588 21.534 42.554v1.028c0 4.15-3.364 7.515-7.515 7.515l-89.703-.031c-4.15 0-7.514-3.364-7.514-7.514v-233.424c0-50.466 32.724-95.479 80.263-111.41v-24.648c0-27.484 22.36-49.844 49.844-49.844 25.459 0 46.759 19.082 49.547 44.386 1.424 12.932 12.307 22.683 25.317 22.683h.902c13.01 0 23.894-9.751 25.318-22.682 2.788-25.304 24.088-44.386 49.547-44.386 27.484 0 49.844 22.36 49.844 49.844v56.892c0 14.044 11.426 25.47 25.471 25.47 14.044 0 25.47-11.426 25.47-25.47v-95.657c0-22.332 18.168-40.5 40.5-40.5 20.908 0 38.166 15.925 40.281 36.283h9.197c22.331 0 40.499 18.168 40.499 40.5 0 21.283-16.501 38.785-37.383 40.381v.567c0 41.681-14.882 82.202-41.903 114.098-25.325 29.894-59.837 50.606-97.733 58.787v114.731c13.431 9.985 21.329 25.541 21.329 42.401v1.028c0 4.151-3.364 7.516-7.514 7.516z"/></g></svg>